<?xml version="1.0" encoding="UTF-8"?>
<svg width="20px" height="20px" viewBox="0 0 20 20" version="1.1" xmlns="http://www.w3.org/2000/svg" xmlns:xlink="http://www.w3.org/1999/xlink">
    <!-- Generator: Sketch 48.2 (47327) - http://www.bohemiancoding.com/sketch -->
    <title>ico_dbqcs</title>
    <desc></desc>
    <desc>bsp dbqcs 브랜드 CI</desc>
    <defs></defs>
    <g id="GNB_Select-box" stroke="none" stroke-width="1" fill="none" fill-rule="evenodd" transform="translate(-101.000000, -523.000000)">
        <g id="Group-3" transform="translate(91.000000, 48.000000)">
            <g id="ico_dbqcs" transform="translate(10.000000, 475.000000)">
                <rect id="Rectangle-3" fill="#000000" x="0" y="0" width="20" height="20"></rect>
                <path d="M14.5833333,6.70833588 C14.5833333,7.2836831 14.1170139,7.75000254 13.5416667,7.75000254 C12.9663194,7.75000254 12.5,7.2836831 12.5,6.70833588 C12.5,6.13298865 12.9663194,5.66666921 13.5416667,5.66666921 C14.1170139,5.66666921 14.5833333,6.13298865 14.5833333,6.70833588 Z" id="Fill-1" fill="#FFFFFF"></path>
                <polygon id="Stroke-3" stroke="#FFFFFF" stroke-width="1.3" points="3.75 8.75 16.25 8.75 16.25 4.58333333 3.75 4.58333333"></polygon>
                <path d="M14.5833333,13.3750025 C14.5833333,13.9503498 14.1170139,14.4166692 13.5416667,14.4166692 C12.9663194,14.4166692 12.5,13.9503498 12.5,13.3750025 C12.5,12.7996553 12.9663194,12.3333359 13.5416667,12.3333359 C14.1170139,12.3333359 14.5833333,12.7996553 14.5833333,13.3750025" id="Fill-5" fill="#FFFFFF"></path>
                <polygon id="Stroke-6" stroke="#FFFFFF" stroke-width="1.3" points="3.75 15.4166667 16.25 15.4166667 16.25 11.25 3.75 11.25"></polygon>
            </g>
        </g>
    </g>
</svg>
