<svg width="20px" height="20px" viewBox="0 0 20 20" version="1.1" xmlns="http://www.w3.org/2000/svg" xmlns:xlink="http://www.w3.org/1999/xlink">
    <title>bsp brand ci :: service request</title>
    <g stroke="none" stroke-width="1" fill="none" fill-rule="evenodd">
        <g transform="translate(-101.000000, -421.000000)">
            <g transform="translate(91.000000, 48.000000)">
                <g transform="translate(10.000000, 373.000000)">
                    <rect fill="#000000" x="0" y="0" width="20" height="20"></rect>
                    <path d="M11.4166641,9.95833079 C11.4166641,10.7638169 10.7638169,11.4166641 9.95833079,11.4166641 C9.15284468,11.4166641 8.49999746,10.7638169 8.49999746,9.95833079 C8.49999746,9.15284468 9.15284468,8.49999746 9.95833079,8.49999746 C10.7638169,8.49999746 11.4166641,9.15284468 11.4166641,9.95833079" fill="#FFFFFF"></path>
                    <path d="M2.5,10 L6.66666667,10" stroke="#FFFFFF" stroke-width="1.3"></path>
                    <polyline stroke="#FFFFFF" stroke-width="1.3" points="5 8.33333333 6.66666667 9.97211286 5 11.6666667"></polyline>
                    <path d="M17.5,10 L13.3333333,10" stroke="#FFFFFF" stroke-width="1.3"></path>
                    <polyline stroke="#FFFFFF" stroke-width="1.3" points="15 11.6666667 13.3333333 10.0278871 15 8.33333333"></polyline>
                    <path d="M10,17.5 L10,13.3333333" stroke="#FFFFFF" stroke-width="1.3"></path>
                    <polyline stroke="#FFFFFF" stroke-width="1.3" points="8.33333333 15 9.97211286 13.3333333 11.6666667 15"></polyline>
                    <path d="M10,2.5 L10,6.66666667" stroke="#FFFFFF" stroke-width="1.3"></path>
                    <polyline stroke="#FFFFFF" stroke-width="1.3" points="11.6666667 5 10.0278871 6.66666667 8.33333333 5"></polyline>
                </g>
            </g>
        </g>
    </g>
</svg>
