<?xml version="1.0" encoding="UTF-8"?>
<svg width="24px" height="24px" viewBox="0 0 24 24" version="1.1" xmlns="http://www.w3.org/2000/svg" xmlns:xlink="http://www.w3.org/1999/xlink">
    <!-- Generator: Sketch 47.1 (45422) - http://www.bohemiancoding.com/sketch -->
    <title>Icon :: opsnow</title>
    <desc>opsnow의 브랜드 아이콘</desc>
    <defs>
        <style>
        g { display: none }
        g:target,
        g:target g,
        g:first-child { display: inline }
        </style>
    </defs>
  


    <g id="black" stroke="none" stroke-width="1" fill="none" fill-rule="evenodd">
        <g id="email_incident" transform="translate(-300.000000, -152.000000)">
            <g id="Group" transform="translate(300.000000, 148.000000)">
                <g id="Page-1-Copy-10" transform="translate(0.000000, 4.000000)">
                    <polygon id="Fill-1" fill="#000000" points="0 24 24 24 24 0 0 0"></polygon>
                    <polygon id="Fill-2" fill="#FFFFFF" points="9.16687379 9.2800801 8.00432988 8.11818239 6.68749434 9.64655491 6.68749434 14.3973916 8.00432988 15.9256685 9.16687379 14.7638664 8.3493099 13.8054967 8.3493099 10.2384497"></polygon>
                    <polygon id="Fill-3" fill="#FFFFFF" points="6.40375748 6.55119784 6.41944491 6.534277 5.25709231 5.37266608 2.86495028 7.97881011 2.86495028 16.0211804 5.25709231 18.6273723 6.41944491 17.4657135 4.52676584 15.4313888 4.52676584 8.56860178"></polygon>
                    <polygon id="Fill-4" fill="#FFFFFF" points="14.8331263 9.2800801 15.6506902 10.2384497 15.6506902 13.8054967 14.8331263 14.7638664 15.9956702 15.9256685 17.3125058 14.3973916 17.3125058 9.64655491 15.9956702 8.11818239"></polygon>
                    <polygon id="Fill-5" fill="#FFFFFF" points="18.7428887 5.37265174 17.5805361 6.53431046 19.473263 8.56858744 19.473263 15.4313744 17.5962235 17.4488262 17.5805361 17.4656992 18.7428887 18.6273579 21.1350785 16.0211661 21.1350785 7.97879577"></polygon>
                    <path d="M13.8673305,12.0439225 C13.8673305,11.013233 13.0313052,10.1777068 12.0000001,10.1777068 C10.9687427,10.1777068 10.1326696,11.013233 10.1326696,12.0439225 C10.1326696,13.0745642 10.9687427,13.9101383 12.0000001,13.9101383 C13.0313052,13.9101383 13.8673305,13.0745642 13.8673305,12.0439225" id="Fill-6" fill="#FFFFFF"></path>
                </g>
            </g>
        </g>
    </g>


    <g id="orange" stroke="none" stroke-width="1" fill="none" fill-rule="evenodd">
        <g id="email_incident" transform="translate(-300.000000, -152.000000)">
            <g id="Group" transform="translate(300.000000, 148.000000)">
                <g id="Page-1-Copy-10" transform="translate(0.000000, 4.000000)">
                    <polygon id="Fill-1" fill="#EE464F" points="0 24 24 24 24 0 0 0"></polygon>
                    <polygon id="Fill-2" fill="#FFFFFF" points="9.16687379 9.2800801 8.00432988 8.11818239 6.68749434 9.64655491 6.68749434 14.3973916 8.00432988 15.9256685 9.16687379 14.7638664 8.3493099 13.8054967 8.3493099 10.2384497"></polygon>
                    <polygon id="Fill-3" fill="#FFFFFF" points="6.40375748 6.55119784 6.41944491 6.534277 5.25709231 5.37266608 2.86495028 7.97881011 2.86495028 16.0211804 5.25709231 18.6273723 6.41944491 17.4657135 4.52676584 15.4313888 4.52676584 8.56860178"></polygon>
                    <polygon id="Fill-4" fill="#FFFFFF" points="14.8331263 9.2800801 15.6506902 10.2384497 15.6506902 13.8054967 14.8331263 14.7638664 15.9956702 15.9256685 17.3125058 14.3973916 17.3125058 9.64655491 15.9956702 8.11818239"></polygon>
                    <polygon id="Fill-5" fill="#FFFFFF" points="18.7428887 5.37265174 17.5805361 6.53431046 19.473263 8.56858744 19.473263 15.4313744 17.5962235 17.4488262 17.5805361 17.4656992 18.7428887 18.6273579 21.1350785 16.0211661 21.1350785 7.97879577"></polygon>
                    <path d="M13.8673305,12.0439225 C13.8673305,11.013233 13.0313052,10.1777068 12.0000001,10.1777068 C10.9687427,10.1777068 10.1326696,11.013233 10.1326696,12.0439225 C10.1326696,13.0745642 10.9687427,13.9101383 12.0000001,13.9101383 C13.0313052,13.9101383 13.8673305,13.0745642 13.8673305,12.0439225" id="Fill-6" fill="#FFFFFF"></path>
                </g>
            </g>
        </g>
    </g>
</svg>
