<svg width="20px" height="20px" viewBox="0 0 20 20" version="1.1" xmlns="http://www.w3.org/2000/svg" xmlns:xlink="http://www.w3.org/1999/xlink">
    <title>BSP Icon :: brand Approval</title>
    <g stroke="none" stroke-width="1" fill="none" fill-rule="evenodd">
        <g transform="translate(-101.000000, -370.000000)">
            <g transform="translate(91.000000, 48.000000)">
                <g transform="translate(10.000000, 322.000000)">
                    <rect fill="#000000" x="0" y="0" width="20" height="20"></rect>
                    <path d="M14.1666667,13.75 C14.1666667,14.4404167 13.6070833,15 12.9166667,15 C12.22625,15 11.6666667,14.4404167 11.6666667,13.75 C11.6666667,13.0595833 12.22625,12.5 12.9166667,12.5 C13.6070833,12.5 14.1666667,13.0595833 14.1666667,13.75" fill="#FFFFFF"></path>
                    <path d="M11.7083333,15.7179836 L9.92158303,17.4665611" stroke="#FFFFFF" stroke-width="1.29999995"></path>
                    <path d="M16.0921019,17.4862921 L14.3078265,15.7351892" stroke="#FFFFFF" stroke-width="1.29999995"></path>
                    <polyline stroke="#FFFFFF" stroke-width="1.30000007" points="9.16666667 15.2833343 3.04166794 15.2833343 3.04166794 4.7083346 16.9583352 4.7083346 16.9583352 15"></polyline>
                    <path d="M5,7.91666667 L12.5,7.91666667" stroke="#FFFFFF"></path>
                    <path d="M5,10.4166667 L12.5,10.4166667" stroke="#FFFFFF"></path>
                </g>
            </g>
        </g>
    </g>
</svg>
