<svg width="24" height="24" xmlns="http://www.w3.org/2000/svg"><defs><style>g{display:none}g:first-child,g:target,g:target g{display:inline}</style></defs><g id="black" fill="none" fill-rule="evenodd"><g id="email_incident" transform="translate(-300 -152)"><g id="Group" transform="translate(300 148)"><g id="Page-1-Copy-10" transform="translate(0 4)"><path id="Fill-1" fill="#000" d="M0 24h24V0H0z"/><path id="Fill-2" fill="#FFF" d="M9.167 9.28L8.004 8.118 6.687 9.647v4.75l1.317 1.529 1.163-1.162-.818-.959v-3.567z"/><path id="Fill-3" fill="#FFF" d="M6.404 6.551l.015-.017-1.162-1.161-2.392 2.606v8.042l2.392 2.606 1.162-1.161-1.892-2.035V8.57z"/><path id="Fill-4" fill="#FFF" d="M14.833 9.28l.818.958v3.567l-.818.959 1.163 1.162 1.317-1.529v-4.75l-1.317-1.529z"/><path id="Fill-5" fill="#FFF" d="M18.743 5.373L17.58 6.534l1.892 2.035v6.862l-1.877 2.018-.015.017 1.162 1.161 2.392-2.606V7.98z"/><path d="M13.867 12.044a1.867 1.867 0 1 0-3.733.001 1.867 1.867 0 0 0 3.733-.001" id="Fill-6" fill="#FFF"/></g></g></g></g><g id="orange" fill="none" fill-rule="evenodd"><g id="email_incident" transform="translate(-300 -152)"><g id="Group" transform="translate(300 148)"><g id="Page-1-Copy-10" transform="translate(0 4)"><path id="Fill-1" fill="#EE464F" d="M0 24h24V0H0z"/><path id="Fill-2" fill="#FFF" d="M9.167 9.28L8.004 8.118 6.687 9.647v4.75l1.317 1.529 1.163-1.162-.818-.959v-3.567z"/><path id="Fill-3" fill="#FFF" d="M6.404 6.551l.015-.017-1.162-1.161-2.392 2.606v8.042l2.392 2.606 1.162-1.161-1.892-2.035V8.57z"/><path id="Fill-4" fill="#FFF" d="M14.833 9.28l.818.958v3.567l-.818.959 1.163 1.162 1.317-1.529v-4.75l-1.317-1.529z"/><path id="Fill-5" fill="#FFF" d="M18.743 5.373L17.58 6.534l1.892 2.035v6.862l-1.877 2.018-.015.017 1.162 1.161 2.392-2.606V7.98z"/><path d="M13.867 12.044a1.867 1.867 0 1 0-3.733.001 1.867 1.867 0 0 0 3.733-.001" id="Fill-6" fill="#FFF"/></g></g></g></g></svg>